%TF.GenerationSoftware,KiCad,Pcbnew,(7.0.0-0)*%
%TF.CreationDate,2023-11-04T22:02:26-07:00*%
%TF.ProjectId,master_node,6d617374-6572-45f6-9e6f-64652e6b6963,rev?*%
%TF.SameCoordinates,Original*%
%TF.FileFunction,Soldermask,Top*%
%TF.FilePolarity,Negative*%
%FSLAX46Y46*%
G04 Gerber Fmt 4.6, Leading zero omitted, Abs format (unit mm)*
G04 Created by KiCad (PCBNEW (7.0.0-0)) date 2023-11-04 22:02:26*
%MOMM*%
%LPD*%
G01*
G04 APERTURE LIST*
G04 Aperture macros list*
%AMRoundRect*
0 Rectangle with rounded corners*
0 $1 Rounding radius*
0 $2 $3 $4 $5 $6 $7 $8 $9 X,Y pos of 4 corners*
0 Add a 4 corners polygon primitive as box body*
4,1,4,$2,$3,$4,$5,$6,$7,$8,$9,$2,$3,0*
0 Add four circle primitives for the rounded corners*
1,1,$1+$1,$2,$3*
1,1,$1+$1,$4,$5*
1,1,$1+$1,$6,$7*
1,1,$1+$1,$8,$9*
0 Add four rect primitives between the rounded corners*
20,1,$1+$1,$2,$3,$4,$5,0*
20,1,$1+$1,$4,$5,$6,$7,0*
20,1,$1+$1,$6,$7,$8,$9,0*
20,1,$1+$1,$8,$9,$2,$3,0*%
G04 Aperture macros list end*
%ADD10O,3.500000X2.200000*%
%ADD11R,2.500000X1.500000*%
%ADD12O,2.500000X1.500000*%
%ADD13RoundRect,1.500000X-1.500000X1.500000X-1.500000X-1.500000X1.500000X-1.500000X1.500000X1.500000X0*%
%ADD14C,6.000000*%
%ADD15RoundRect,0.250000X-0.475000X0.337500X-0.475000X-0.337500X0.475000X-0.337500X0.475000X0.337500X0*%
%ADD16R,1.700000X1.700000*%
%ADD17O,1.700000X1.700000*%
%ADD18R,1.500000X2.000000*%
%ADD19R,3.800000X2.000000*%
%ADD20RoundRect,0.250000X-0.450000X0.350000X-0.450000X-0.350000X0.450000X-0.350000X0.450000X0.350000X0*%
%ADD21C,3.200000*%
%ADD22RoundRect,0.250000X0.325000X0.450000X-0.325000X0.450000X-0.325000X-0.450000X0.325000X-0.450000X0*%
%ADD23RoundRect,0.250000X0.475000X-0.337500X0.475000X0.337500X-0.475000X0.337500X-0.475000X-0.337500X0*%
%ADD24C,1.734000*%
%ADD25RoundRect,0.102000X-0.765000X-0.765000X0.765000X-0.765000X0.765000X0.765000X-0.765000X0.765000X0*%
%ADD26C,1.809000*%
%ADD27RoundRect,0.102000X-0.802500X-0.802500X0.802500X-0.802500X0.802500X0.802500X-0.802500X0.802500X0*%
%ADD28C,3.000000*%
%ADD29RoundRect,0.250000X-0.337500X-0.475000X0.337500X-0.475000X0.337500X0.475000X-0.337500X0.475000X0*%
G04 APERTURE END LIST*
D10*
%TO.C,SW2*%
X191039999Y-109509999D03*
X191039999Y-101309999D03*
D11*
X191039999Y-107409999D03*
D12*
X191039999Y-105409999D03*
X191039999Y-103409999D03*
%TD*%
D13*
%TO.C,J15*%
X132000000Y-159400000D03*
D14*
X132000000Y-166600000D03*
%TD*%
D13*
%TO.C,J16*%
X121750000Y-159400000D03*
D14*
X121750000Y-166600000D03*
%TD*%
D15*
%TO.C,C4*%
X179750000Y-160482500D03*
X179750000Y-162557500D03*
%TD*%
D16*
%TO.C,J1*%
X170814999Y-80644999D03*
D17*
X170814999Y-83184999D03*
X170814999Y-85724999D03*
%TD*%
D10*
%TO.C,SW5*%
X191039999Y-120939999D03*
X191039999Y-112739999D03*
D11*
X191039999Y-118839999D03*
D12*
X191039999Y-116839999D03*
X191039999Y-114839999D03*
%TD*%
D13*
%TO.C,J14*%
X142250000Y-159400000D03*
D14*
X142250000Y-166600000D03*
%TD*%
D18*
%TO.C,U2*%
X167444999Y-165354999D03*
X165144999Y-165354999D03*
X162844999Y-165354999D03*
D19*
X165144999Y-171654999D03*
%TD*%
D15*
%TO.C,C2*%
X167685000Y-160482500D03*
X167685000Y-162557500D03*
%TD*%
D16*
%TO.C,J2*%
X170814999Y-103504999D03*
D17*
X170814999Y-106044999D03*
X170814999Y-108584999D03*
%TD*%
D20*
%TO.C,R4*%
X185420000Y-101235000D03*
X185420000Y-103235000D03*
%TD*%
D17*
%TO.C,J12*%
X76199999Y-127009999D03*
X76199999Y-129549999D03*
X76199999Y-132089999D03*
D16*
X76199999Y-134629999D03*
%TD*%
D13*
%TO.C,J18*%
X101250000Y-159400000D03*
D14*
X101250000Y-166600000D03*
%TD*%
D13*
%TO.C,J13*%
X152500000Y-159400000D03*
D14*
X152500000Y-166600000D03*
%TD*%
D16*
%TO.C,J4*%
X170814999Y-92074999D03*
D17*
X170814999Y-94614999D03*
X170814999Y-97154999D03*
%TD*%
D13*
%TO.C,J19*%
X91000000Y-159400000D03*
D14*
X91000000Y-166600000D03*
%TD*%
D21*
%TO.C,H4*%
X191000000Y-60000000D03*
%TD*%
D22*
%TO.C,D1*%
X167917500Y-153900000D03*
X165867500Y-153900000D03*
%TD*%
D16*
%TO.C,J22*%
X178429999Y-125094999D03*
D17*
X180969999Y-125094999D03*
%TD*%
%TO.C,J7*%
X76199999Y-113039999D03*
X76199999Y-115579999D03*
X76199999Y-118119999D03*
D16*
X76199999Y-120659999D03*
%TD*%
D10*
%TO.C,SW6*%
X191039999Y-143799999D03*
X191039999Y-135599999D03*
D11*
X191039999Y-141699999D03*
D12*
X191039999Y-139699999D03*
X191039999Y-137699999D03*
%TD*%
D17*
%TO.C,J8*%
X76199999Y-99079999D03*
X76199999Y-101619999D03*
X76199999Y-104159999D03*
D16*
X76199999Y-106699999D03*
%TD*%
D17*
%TO.C,J9*%
X76199999Y-140969999D03*
X76199999Y-143509999D03*
X76199999Y-146049999D03*
D16*
X76199999Y-148589999D03*
%TD*%
D18*
%TO.C,U3*%
X179424999Y-165102499D03*
X177124999Y-165102499D03*
X174824999Y-165102499D03*
D19*
X177124999Y-171402499D03*
%TD*%
D16*
%TO.C,J3*%
X170814999Y-126364999D03*
D17*
X170814999Y-128904999D03*
X170814999Y-131444999D03*
%TD*%
D13*
%TO.C,J17*%
X111500000Y-159400000D03*
D14*
X111500000Y-166600000D03*
%TD*%
D23*
%TO.C,C1*%
X162605000Y-162557500D03*
X162605000Y-160482500D03*
%TD*%
D21*
%TO.C,H3*%
X191000000Y-169000000D03*
%TD*%
D24*
%TO.C,U1*%
X158115000Y-143525000D03*
X155575000Y-143525000D03*
X158115000Y-140985000D03*
X155575000Y-140985000D03*
X158115000Y-138445000D03*
X155575000Y-138445000D03*
X158115000Y-135905000D03*
X155575000Y-135905000D03*
X158115000Y-133365000D03*
X155575000Y-133365000D03*
X158115000Y-130825000D03*
X155575000Y-130825000D03*
X158115000Y-128285000D03*
X155575000Y-128285000D03*
X158115000Y-125745000D03*
X155575000Y-125745000D03*
X158115000Y-123205000D03*
X155575000Y-123205000D03*
X158115000Y-120665000D03*
X155575000Y-120665000D03*
X158115000Y-118125000D03*
X155575000Y-118125000D03*
X158115000Y-115585000D03*
X155575000Y-115585000D03*
X158115000Y-113045000D03*
X155575000Y-113045000D03*
X158115000Y-110505000D03*
X155575000Y-110505000D03*
X158115000Y-107965000D03*
X155575000Y-107965000D03*
X158115000Y-105425000D03*
X155575000Y-105425000D03*
X158115000Y-102885000D03*
X155575000Y-102885000D03*
X158115000Y-100345000D03*
X155575000Y-100345000D03*
X158115000Y-97805000D03*
D25*
X155575000Y-97805000D03*
D26*
X150495000Y-125745000D03*
X150495000Y-128285000D03*
X150495000Y-130825000D03*
X150495000Y-133365000D03*
X150495000Y-135905000D03*
X150495000Y-138445000D03*
X150495000Y-140985000D03*
D27*
X150495000Y-143525000D03*
D26*
X102235000Y-143525000D03*
X102235000Y-140985000D03*
X102235000Y-138445000D03*
X102235000Y-135905000D03*
X102235000Y-133365000D03*
D27*
X102235000Y-130825000D03*
D24*
X97155000Y-143525000D03*
X94615000Y-143525000D03*
X97155000Y-140985000D03*
X94615000Y-140985000D03*
X97155000Y-138445000D03*
X94615000Y-138445000D03*
X97155000Y-135905000D03*
X94615000Y-135905000D03*
X97155000Y-133365000D03*
X94615000Y-133365000D03*
X97155000Y-130825000D03*
X94615000Y-130825000D03*
X97155000Y-128285000D03*
X94615000Y-128285000D03*
X97155000Y-125745000D03*
X94615000Y-125745000D03*
X97155000Y-123205000D03*
X94615000Y-123205000D03*
X97155000Y-120665000D03*
X94615000Y-120665000D03*
X97155000Y-118125000D03*
X94615000Y-118125000D03*
X97155000Y-115585000D03*
X94615000Y-115585000D03*
X97155000Y-113045000D03*
X94615000Y-113045000D03*
X97155000Y-110505000D03*
X94615000Y-110505000D03*
X97155000Y-107965000D03*
X94615000Y-107965000D03*
X97155000Y-105425000D03*
X94615000Y-105425000D03*
X97155000Y-102885000D03*
X94615000Y-102885000D03*
X97155000Y-100345000D03*
X94615000Y-100345000D03*
X97155000Y-97805000D03*
D25*
X94615000Y-97805000D03*
D26*
X102235000Y-125745000D03*
X102235000Y-123205000D03*
X102235000Y-120665000D03*
X102235000Y-118125000D03*
X102235000Y-115585000D03*
X102235000Y-113045000D03*
X102235000Y-110505000D03*
D27*
X102235000Y-107965000D03*
D26*
X150495000Y-98825000D03*
X150495000Y-101365000D03*
X150495000Y-103905000D03*
X150495000Y-106445000D03*
X150495000Y-108985000D03*
X150495000Y-111525000D03*
X150495000Y-114065000D03*
X150495000Y-116605000D03*
X150495000Y-119145000D03*
D27*
X150495000Y-121685000D03*
D28*
X150495000Y-95265000D03*
X135255000Y-146065000D03*
X102235000Y-93995000D03*
%TD*%
D16*
%TO.C,J21*%
X178434999Y-102234999D03*
D17*
X180974999Y-102234999D03*
%TD*%
D10*
%TO.C,SW3*%
X191039999Y-98079999D03*
X191039999Y-89879999D03*
D11*
X191039999Y-95979999D03*
D12*
X191039999Y-93979999D03*
X191039999Y-91979999D03*
%TD*%
D20*
%TO.C,R7*%
X185420000Y-112665000D03*
X185420000Y-114665000D03*
%TD*%
D16*
%TO.C,J23*%
X178434999Y-90804999D03*
D17*
X180974999Y-90804999D03*
%TD*%
D16*
%TO.C,J25*%
X178434999Y-136524999D03*
D17*
X180974999Y-136524999D03*
%TD*%
D10*
%TO.C,SW1*%
X191039999Y-86649999D03*
X191039999Y-78449999D03*
D11*
X191039999Y-84549999D03*
D12*
X191039999Y-82549999D03*
X191039999Y-80549999D03*
%TD*%
D20*
%TO.C,R5*%
X185420000Y-89805000D03*
X185420000Y-91805000D03*
%TD*%
D16*
%TO.C,J5*%
X170814999Y-114949999D03*
D17*
X170814999Y-117489999D03*
X170814999Y-120029999D03*
%TD*%
D16*
%TO.C,J6*%
X170814999Y-137794999D03*
D17*
X170814999Y-140334999D03*
X170814999Y-142874999D03*
%TD*%
D20*
%TO.C,R3*%
X185420000Y-124095000D03*
X185420000Y-126095000D03*
%TD*%
D21*
%TO.C,H1*%
X77000000Y-60000000D03*
%TD*%
D17*
%TO.C,J11*%
X76199999Y-85099999D03*
X76199999Y-87639999D03*
X76199999Y-90179999D03*
D16*
X76199999Y-92719999D03*
%TD*%
D23*
%TO.C,C3*%
X174670000Y-162557500D03*
X174670000Y-160482500D03*
%TD*%
D29*
%TO.C,R1*%
X172595000Y-153900000D03*
X174670000Y-153900000D03*
%TD*%
D20*
%TO.C,R2*%
X185420000Y-78375000D03*
X185420000Y-80375000D03*
%TD*%
D10*
%TO.C,SW4*%
X191039999Y-132369999D03*
X191039999Y-124169999D03*
D11*
X191039999Y-130269999D03*
D12*
X191039999Y-128269999D03*
X191039999Y-126269999D03*
%TD*%
D17*
%TO.C,J10*%
X76199999Y-71129999D03*
X76199999Y-73669999D03*
X76199999Y-76209999D03*
D16*
X76199999Y-78749999D03*
%TD*%
%TO.C,J20*%
X178429999Y-79374999D03*
D17*
X180969999Y-79374999D03*
%TD*%
D20*
%TO.C,R6*%
X185420000Y-135525000D03*
X185420000Y-137525000D03*
%TD*%
D21*
%TO.C,H2*%
X78000000Y-169000000D03*
%TD*%
D16*
%TO.C,J24*%
X178429999Y-113664999D03*
D17*
X180969999Y-113664999D03*
%TD*%
M02*
